<svg width="44" height="44" viewBox="0 0 44 44" fill="none" xmlns="http://www.w3.org/2000/svg">
<path d="M0.5 8C0.5 3.85786 3.85786 0.5 8 0.5H36C40.1421 0.5 43.5 3.85786 43.5 8V36C43.5 40.1421 40.1421 43.5 36 43.5H8C3.85786 43.5 0.5 40.1421 0.5 36V8Z" stroke="#333333"/>
<path d="M19.1971 38L19.6642 25.7778L8.80292 32.3333L6 27.6667L17.4453 22L6 16.3333L8.80292 11.6667L19.6642 18.2222L19.1971 6H24.8029L24.3358 18.2222L35.1971 11.6667L38 16.3333L26.5547 22L38 27.6667L35.1971 32.3333L24.3358 25.7778L24.8029 38H19.1971Z" fill="#F52A3B"/>
</svg>
