<svg width="24" height="24" viewBox="0 0 24 24" fill="none" xmlns="http://www.w3.org/2000/svg">
<path d="M2 23V19H22V23H2ZM6 15H7.4L15.2 7.225L13.775 5.8L6 13.6V15ZM4 17V12.75L15.2 1.575C15.3833 1.39167 15.5958 1.25 15.8375 1.15C16.0792 1.05 16.3333 1 16.6 1C16.8667 1 17.125 1.05 17.375 1.15C17.625 1.25 17.85 1.4 18.05 1.6L19.425 3C19.625 3.18333 19.7708 3.4 19.8625 3.65C19.9542 3.9 20 4.15833 20 4.425C20 4.675 19.9542 4.92083 19.8625 5.1625C19.7708 5.40417 19.625 5.625 19.425 5.825L8.25 17H4Z" fill="#fff"/>
</svg>
