<svg width="74" height="60" viewBox="0 0 74 60" fill="none" xmlns="http://www.w3.org/2000/svg">
<rect width="74" height="60" fill="#333333"/>
<rect x="15" y="19" width="44" height="2" fill="white"/>
<path d="M47 8L48.7541 15.7653L55.4853 11.5147L51.2347 18.2459L59 20L51.2347 21.7541L55.4853 28.4853L48.7541 24.2347L47 32L45.2459 24.2347L38.5147 28.4853L42.7653 21.7541L35 20L42.7653 18.2459L38.5147 11.5147L45.2459 15.7653L47 8Z" fill="white"/>
<rect x="15" y="39" width="44" height="2" fill="white"/>
<path d="M27 28L28.7541 35.7653L35.4853 31.5147L31.2347 38.2459L39 40L31.2347 41.7541L35.4853 48.4853L28.7541 44.2347L27 52L25.2459 44.2347L18.5147 48.4853L22.7653 41.7541L15 40L22.7653 38.2459L18.5147 31.5147L25.2459 35.7653L27 28Z" fill="white"/>
</svg>
