<svg width="131" height="131" viewBox="0 0 131 131" fill="none" xmlns="http://www.w3.org/2000/svg">
<path d="M66.8958 15.4326L68.4393 3.89904L69.8359 4.08647L69.1486 9.2225L75.298 10.0478L75.9853 4.9118L77.3819 5.09924L75.8383 16.6328L74.4418 16.4453L75.1321 11.2868L68.9827 10.4615L68.2924 15.62L66.8958 15.4326Z" fill="#333333"/>
<path d="M85.384 7.2839L81.4249 18.226L80.1003 17.7454L84.0594 6.80326L85.384 7.2839Z" fill="#333333"/>
<path d="M92.3463 11.2309L92.9997 10.1653L100.434 14.7368L99.7804 15.8024L96.6635 13.8857L91.2342 22.7401L90.0339 22.002L95.4632 13.1476L92.3463 11.2309Z" fill="#333333"/>
<path d="M104.587 19.2845L105.47 18.3997L111.639 24.5729L110.756 25.4577L108.17 22.8695L100.833 30.2217L99.8373 29.225L107.174 21.8728L104.587 19.2845Z" fill="#333333"/>
<path d="M105.751 35.5455L104.983 34.2838L117.136 31.8684L117.893 33.1107L110.184 42.8248L109.416 41.5631L115.967 33.4879L115.92 33.4102L105.751 35.5455ZM109.914 33.6424L113.011 38.7282L111.944 39.3796L108.847 34.2939L109.914 33.6424Z" fill="#333333"/>
<path d="M114.322 53.8031L125.847 52.1953L126.814 59.1511L125.576 59.3238L124.803 53.7637L120.909 54.3069L121.632 59.5069L120.394 59.6796L119.671 54.4796L115.754 55.026L116.54 60.6762L115.302 60.8489L114.322 53.8031Z" fill="#333333"/>
<path d="M126.302 75.9857L114.74 74.6657L114.895 73.3109L124.689 68.047L124.702 67.9341L115.625 66.8977L115.784 65.4977L127.345 66.8177L127.191 68.1726L117.371 73.4564L117.358 73.5693L126.458 74.6083L126.302 75.9857Z" fill="#333333"/>
<path d="M111.057 86.498L121.109 92.3587L120.401 93.5769L111.428 88.3457L108.71 93.022L107.63 92.3925L111.057 86.498Z" fill="#333333"/>
<path d="M112.823 104.88L104.079 97.2015L105.008 96.1414L113.751 103.82L112.823 104.88Z" fill="#333333"/>
<path d="M99.4843 102.343L100.663 101.453L104.25 113.324L103.089 114.2L92.6817 107.477L93.8608 106.587L102.527 112.319L102.599 112.264L99.4843 102.343ZM101.782 106.303L97.0295 109.89L96.2779 108.892L101.031 105.304L101.782 106.303Z" fill="#333333"/>
<path d="M77.9995 122.684C78.1983 123.229 78.5702 123.6 79.1152 123.798C79.6601 123.996 80.2754 124.013 80.9609 123.851C81.4622 123.732 81.8816 123.547 82.2192 123.296C82.5531 123.045 82.7916 122.753 82.9346 122.42C83.0739 122.087 83.1009 121.74 83.0155 121.379C82.944 121.076 82.8107 120.833 82.6156 120.65C82.4176 120.471 82.1874 120.337 81.9249 120.247C81.6632 120.161 81.3962 120.102 81.1238 120.069C80.8522 120.04 80.6049 120.023 80.3817 120.017L79.1586 119.98C78.8454 119.973 78.4921 119.944 78.0987 119.893C77.7016 119.843 77.3093 119.74 76.9218 119.582C76.5315 119.43 76.1845 119.196 75.8807 118.883C75.577 118.57 75.3624 118.148 75.237 117.617C75.0923 117.005 75.1219 116.414 75.3258 115.844C75.526 115.275 75.8976 114.772 76.4406 114.336C76.9799 113.9 77.6845 113.58 78.5544 113.373C79.3652 113.181 80.0983 113.146 80.7535 113.267C81.4051 113.389 81.9558 113.644 82.4055 114.031C82.8516 114.42 83.17 114.919 83.3606 115.527L81.9452 115.863C81.8073 115.444 81.5799 115.124 81.2631 114.904C80.9434 114.687 80.5739 114.557 80.1547 114.512C79.7326 114.472 79.2968 114.505 78.8471 114.612C78.3238 114.736 77.8739 114.932 77.4975 115.201C77.1219 115.473 76.8487 115.79 76.6778 116.154C76.5077 116.521 76.4715 116.911 76.569 117.324C76.6579 117.7 76.8353 117.981 77.1011 118.167C77.367 118.354 77.6887 118.48 78.0664 118.546C78.444 118.612 78.8449 118.653 79.2691 118.67L80.7564 118.737C81.7011 118.782 82.4872 118.979 83.1148 119.329C83.7423 119.678 84.1463 120.235 84.3266 120.998C84.4765 121.632 84.4358 122.225 84.2046 122.778C83.9705 123.336 83.5933 123.815 83.0728 124.214C82.5495 124.619 81.9266 124.907 81.2042 125.078C80.4745 125.251 79.7948 125.274 79.1654 125.147C78.5368 125.023 78.0035 124.776 77.5654 124.405C77.1237 124.034 76.8261 123.566 76.6726 122.999L77.9995 122.684Z" fill="#333333"/>
<path d="M60.3338 120.917C60.3645 119.69 60.6126 118.635 61.078 117.753C61.5434 116.87 62.1684 116.196 62.9531 115.731C63.7377 115.266 64.6261 115.046 65.6182 115.071C66.6103 115.096 67.4865 115.36 68.2468 115.864C69.0072 116.368 69.5977 117.073 70.0183 117.978C70.439 118.882 70.634 119.948 70.6032 121.175C70.5725 122.402 70.3244 123.457 69.859 124.339C69.3936 125.222 68.7686 125.896 67.9839 126.361C67.1993 126.826 66.3109 127.046 65.3188 127.021C64.3267 126.997 63.4505 126.732 62.6901 126.228C61.9298 125.724 61.3393 125.019 60.9186 124.115C60.498 123.21 60.303 122.144 60.3338 120.917ZM61.697 120.951C61.6717 121.959 61.8189 122.813 62.1386 123.514C62.4545 124.216 62.8938 124.751 63.4567 125.122C64.0158 125.492 64.6475 125.686 65.3518 125.704C66.0562 125.721 66.6987 125.559 67.2794 125.218C67.8563 124.876 68.3219 124.363 68.6763 123.679C69.0269 122.994 69.2148 122.148 69.24 121.141C69.2653 120.134 69.1199 119.279 68.8041 118.578C68.4844 117.876 68.045 117.341 67.486 116.97C66.9231 116.6 66.2895 116.406 65.5852 116.388C64.8808 116.371 64.2402 116.533 63.6633 116.874C63.0826 117.216 62.6169 117.729 62.2664 118.414C61.912 119.098 61.7222 119.944 61.697 120.951Z" fill="#333333"/>
<path d="M53.1911 125.906L51.5907 125.389L50.7874 114.98L50.6576 114.938L43.9343 122.917L42.3339 122.4L45.8998 111.324L47.1542 111.729L44.445 120.144L44.5531 120.179L50.7228 112.881L51.934 113.272L52.6852 122.805L52.7934 122.84L55.5026 114.424L56.7571 114.829L53.1911 125.906Z" fill="#333333"/>
<path d="M35.7362 105.317L27.9018 113.921L24.9984 111.269C24.3242 110.654 23.8842 110.029 23.6781 109.394C23.4666 108.76 23.4449 108.143 23.6128 107.542C23.7807 106.941 24.0954 106.387 24.557 105.88C25.0186 105.373 25.5416 105.007 26.126 104.782C26.7077 104.554 27.3247 104.512 27.9771 104.656C28.6269 104.803 29.2861 105.182 29.9546 105.793L32.0356 107.693L31.1941 108.617L29.1466 106.747C28.685 106.326 28.2417 106.067 27.8167 105.972C27.3916 105.876 26.9924 105.906 26.6192 106.063C26.2406 106.22 25.8944 106.471 25.5808 106.815C25.2671 107.16 25.0509 107.527 24.9322 107.916C24.8107 108.302 24.821 108.702 24.9633 109.114C25.103 109.529 25.4064 109.949 25.8735 110.376L27.7028 112.046L34.6956 104.367L35.7362 105.317Z" fill="#333333"/>
<path d="M27.2681 97.1915L28.0927 98.4172L16.0616 101.381L15.2496 100.174L22.5105 90.1203L23.3352 91.346L17.1563 99.7098L17.207 99.7852L27.2681 97.1915ZM23.1956 99.2813L19.8717 94.3409L20.9079 93.6417L24.2318 98.5822L23.1956 99.2813Z" fill="#333333"/>
<path d="M10.3916 83.9412C9.8726 84.1999 9.54504 84.6112 9.40887 85.1751C9.27271 85.7391 9.32329 86.3528 9.56062 87.0161C9.73415 87.5012 9.96443 87.8975 10.2515 88.205C10.5372 88.5089 10.8537 88.7132 11.201 88.818C11.547 88.9193 11.8947 88.9072 12.2441 88.7818C12.5364 88.6769 12.7629 88.5172 12.9235 88.3026C13.0792 88.0858 13.1871 87.8419 13.247 87.5708C13.3034 87.3011 13.3328 87.029 13.3351 86.7545C13.3339 86.4813 13.3237 86.2334 13.3045 86.0109L13.2058 84.7907C13.1786 84.4786 13.1685 84.124 13.1753 83.7272C13.1809 83.3268 13.2404 82.9251 13.3538 82.5223C13.4623 82.1171 13.6553 81.746 13.933 81.409C14.2107 81.0719 14.6063 80.8113 15.1197 80.6271C15.7115 80.4147 16.3018 80.378 16.8906 80.5169C17.4781 80.6522 18.0186 80.9653 18.512 81.4563C19.0042 81.9437 19.4009 82.6083 19.702 83.45C19.9827 84.2346 20.0992 84.9594 20.0515 85.6245C20.0026 86.2859 19.8104 86.8619 19.475 87.3525C19.1383 87.8395 18.6781 88.2119 18.0944 88.4696L17.6045 87.1C18.0053 86.916 18.2978 86.6541 18.482 86.3144C18.6613 85.9723 18.75 85.5904 18.7479 85.1686C18.741 84.7445 18.6597 84.3149 18.5041 83.8798C18.3229 83.3733 18.0782 82.948 17.77 82.6039C17.4583 82.261 17.1123 82.0249 16.7322 81.8957C16.3485 81.7678 15.957 81.7754 15.5576 81.9187C15.194 82.0492 14.9344 82.257 14.779 82.5421C14.6235 82.8273 14.5338 83.1613 14.5099 83.5442C14.4859 83.927 14.4894 84.3302 14.5202 84.7538L14.6175 86.2401C14.6777 87.1843 14.5689 87.9879 14.2912 88.651C14.0135 89.314 13.5056 89.778 12.7676 90.0427C12.1543 90.2628 11.5602 90.2888 10.9852 90.1209C10.4053 89.9506 9.888 89.6292 9.43326 89.1565C8.97367 88.6815 8.61884 88.0945 8.36875 87.3955C8.1161 86.6893 8.0181 86.0162 8.07474 85.3761C8.12782 84.7373 8.31442 84.1794 8.63456 83.7024C8.95341 83.2218 9.38597 82.8734 9.93222 82.6573L10.3916 83.9412Z" fill="#333333"/>
<path d="M7.59344 70.0055C7.02727 70.1305 6.60987 70.45 6.34122 70.964C6.07258 71.478 5.97311 72.0856 6.04281 72.7867C6.09378 73.2993 6.2213 73.7396 6.42537 74.1075C6.62906 74.4717 6.88671 74.7467 7.19829 74.9326C7.50951 75.1148 7.84981 75.1874 8.21919 75.1506C8.52826 75.1198 8.78668 75.0198 8.99445 74.8506C9.19807 74.678 9.36176 74.4676 9.48553 74.2192C9.60552 73.9713 9.69989 73.7144 9.76864 73.4487C9.83361 73.1834 9.88369 72.9405 9.91887 72.72L10.1186 71.5124C10.1677 71.203 10.2437 70.8566 10.3464 70.4733C10.4488 70.0862 10.6037 69.711 10.8112 69.3478C11.0146 68.9811 11.2918 68.6679 11.6428 68.4083C11.9938 68.1487 12.4407 67.9919 12.9835 67.9378C13.6092 67.8754 14.1909 67.983 14.7285 68.2606C15.2658 68.5344 15.7145 68.9693 16.0745 69.5653C16.4341 70.1575 16.6581 70.8984 16.7465 71.788C16.829 72.6172 16.7666 73.3486 16.5593 73.9821C16.3516 74.6119 16.0257 75.1241 15.5815 75.5186C15.1369 75.9093 14.6002 76.1588 13.9715 76.2672L13.8276 74.8198C14.2611 74.7385 14.6083 74.5554 14.8693 74.2706C15.1261 73.9823 15.3046 73.6333 15.4047 73.2236C15.5007 72.8106 15.5258 72.3741 15.4801 71.9142C15.4269 71.379 15.2924 70.9071 15.0767 70.4984C14.8572 70.0902 14.5786 69.7772 14.241 69.5596C13.8997 69.3424 13.5179 69.2549 13.0958 69.297C12.7113 69.3353 12.4092 69.4739 12.1893 69.7128C11.9694 69.9517 11.8016 70.254 11.6856 70.6195C11.5697 70.9851 11.4755 71.3771 11.4029 71.7955L11.1374 73.2608C10.9673 74.1914 10.6673 74.9446 10.2373 75.5204C9.80727 76.0962 9.20217 76.423 8.42194 76.5008C7.77364 76.5654 7.19084 76.4465 6.67353 76.1441C6.15208 75.8383 5.72794 75.4009 5.40112 74.832C5.07015 74.2598 4.86794 73.6043 4.79449 72.8655C4.72028 72.1192 4.78813 71.4424 4.99803 70.8353C5.20416 70.2285 5.52028 69.7326 5.9464 69.3475C6.37214 68.9586 6.87618 68.7256 7.45853 68.6485L7.59344 70.0055Z" fill="#333333"/>
<path d="M16.0053 62.785L15.787 64.2461L4.91043 58.2961L5.12535 56.8575L17.2646 54.3558L17.0463 55.8169L6.8452 57.8046L6.83176 57.8945L16.0053 62.785ZM11.5906 61.572L12.4704 55.6828L13.7066 55.8681L12.8268 61.7572L11.5906 61.572Z" fill="#333333"/>
<path d="M18.0707 50.8631L7.34664 46.3466L8.86903 42.7215C9.22102 41.8833 9.65308 41.2555 10.1652 40.8383C10.6738 40.4195 11.2303 40.1853 11.8345 40.1357C12.4388 40.086 13.0568 40.1942 13.6887 40.4603C14.3205 40.7264 14.8265 41.0916 15.2067 41.5559C15.5869 42.0201 15.8045 42.5783 15.8593 43.2302C15.9107 43.8807 15.7619 44.6215 15.4128 45.4527L14.1808 48.3864L13.0079 47.8924L14.2223 45.0007C14.4628 44.4279 14.5726 43.9316 14.5517 43.5118C14.5323 43.0885 14.402 42.7336 14.1608 42.447C13.9175 42.1555 13.5812 41.9194 13.1519 41.7385C12.7225 41.5577 12.3135 41.48 11.9248 41.5054C11.5362 41.5308 11.1806 41.6831 10.8579 41.9623C10.5317 42.24 10.2469 42.6688 10.0034 43.2485L9.04424 45.5326L18.6163 49.5639L18.0707 50.8631ZM15.3741 43.7841L21.3003 43.1728L20.6667 44.6815L14.7581 45.251L15.3741 43.7841Z" fill="#333333"/>
<path d="M30.347 30.615L27.7368 33.0811L19.7574 24.6116L22.4831 22.0362C23.3036 21.261 24.1655 20.7672 25.0687 20.5548C25.9693 20.3397 26.8725 20.4008 27.7785 20.7382C28.6818 21.0728 29.5465 21.6785 30.3725 22.5552C31.2037 23.4375 31.7624 24.3453 32.0485 25.2787C32.3321 26.2094 32.3348 27.1292 32.0566 28.0382C31.7759 28.9444 31.206 29.8034 30.347 30.615ZM27.9039 31.2036L29.4237 29.7676C30.1231 29.1069 30.5754 28.4242 30.7806 27.7196C30.9859 27.0149 30.9663 26.3065 30.7219 25.5941C30.4776 24.8818 30.0307 24.181 29.3813 23.4917C28.7371 22.808 28.0711 22.3247 27.3831 22.0419C26.6925 21.7564 26.0009 21.6907 25.3083 21.8449C24.613 21.9963 23.935 22.3841 23.2742 23.0085L21.6388 24.5537L27.9039 31.2036Z" fill="#333333"/>
<path d="M32.8262 13.723L38.8642 23.6703L37.6606 24.4029L31.6226 14.4557L32.8262 13.723Z" fill="#333333"/>
<path d="M49.2103 10.121C48.9677 9.79996 48.7004 9.52951 48.4085 9.30964C48.1189 9.08495 47.8066 8.91622 47.4714 8.80343C47.1397 8.68941 46.7889 8.6361 46.419 8.64349C46.049 8.65088 45.6653 8.72312 45.2678 8.8602C44.616 9.08496 44.0813 9.45771 43.6635 9.97842C43.2458 10.4991 42.992 11.1416 42.9024 11.9058C42.8127 12.67 42.9316 13.5284 43.2593 14.4813C43.587 15.4341 44.0229 16.1833 44.567 16.7289C45.1111 17.2744 45.7132 17.6217 46.3733 17.7707C47.0334 17.9197 47.7036 17.8769 48.384 17.6422C49.0142 17.4249 49.5231 17.0991 49.9105 16.665C50.3003 16.2261 50.5445 15.7131 50.6431 15.1262C50.744 14.5344 50.6787 13.9018 50.4471 13.2284L50.8849 13.1736L47.5762 14.3147L47.1697 13.1327L51.3593 11.6878L51.7658 12.8698C52.0775 13.7761 52.1551 14.6308 51.9987 15.434C51.8459 16.236 51.4945 16.9381 50.9446 17.5405C50.3971 18.138 49.6864 18.5874 48.8127 18.8888C47.8387 19.2247 46.904 19.2906 46.0087 19.0865C45.1169 18.8812 44.3198 18.4269 43.6173 17.7235C42.9183 17.019 42.3693 16.0864 41.9702 14.9258C41.6708 14.0554 41.5181 13.2326 41.5119 12.4574C41.508 11.6774 41.6365 10.968 41.8975 10.3291C42.1584 9.69013 42.5376 9.13865 43.0349 8.67463C43.5323 8.21061 44.1337 7.85696 44.8391 7.61367C45.4192 7.4136 45.9901 7.31488 46.5518 7.3175C47.1158 7.31531 47.6496 7.40568 48.1531 7.58863C48.659 7.76677 49.1202 8.03043 49.5367 8.37963C49.952 8.72524 50.3015 9.14762 50.5853 9.64676L49.2103 10.121Z" fill="#333333"/>
<path d="M57.9585 16.4041C57.6801 16.4365 57.4296 16.3646 57.207 16.1884C56.9844 16.0123 56.857 15.785 56.8246 15.5065C56.7923 15.2281 56.8642 14.9776 57.0405 14.7549C57.2167 14.5323 57.444 14.4047 57.7225 14.3723C58.0009 14.3398 58.2514 14.4117 58.4739 14.5879C58.6965 14.7641 58.824 14.9914 58.8563 15.2698C58.8777 15.4542 58.8504 15.629 58.7742 15.7942C58.7019 15.959 58.594 16.0974 58.4507 16.2094C58.3107 16.3173 58.1466 16.3822 57.9585 16.4041Z" fill="#333333"/>
<path d="M64.3631 40.7121C64.6904 39.0942 67.0028 39.0941 67.3301 40.7121L70.6947 57.3464C70.8154 57.943 71.2816 58.4092 71.8781 58.5298L88.5125 61.8945C90.1304 62.2217 90.1304 64.5341 88.5125 64.8614L71.8781 68.226C71.2816 68.3467 70.8154 68.8129 70.6947 69.4094L67.3301 86.0438C67.0028 87.6617 64.6904 87.6617 64.3631 86.0438L60.9985 69.4094C60.8779 68.8129 60.4116 68.3467 59.8151 68.226L43.1808 64.8614C41.5628 64.5341 41.5628 62.2217 43.1808 61.8945L59.8151 58.5298C60.4116 58.4092 60.8779 57.943 60.9985 57.3464L64.3631 40.7121Z" fill="#333333"/>
</svg>
