<svg width="72" height="72" viewBox="0 0 72 72" fill="none" xmlns="http://www.w3.org/2000/svg">
<path d="M39.065 22.7952L39.2396 23.9097L39.9481 23.0318L52.3847 7.62083L45.2568 26.0968L44.8507 27.1493L45.9032 26.7432L64.3792 19.6153L48.9682 32.0519L48.0903 32.7604L49.2048 32.935L68.7694 36L49.2048 39.065L48.0903 39.2396L48.9682 39.9481L64.3792 52.3847L45.9032 45.2568L44.8507 44.8507L45.2568 45.9032L52.3847 64.3792L39.9481 48.9682L39.2396 48.0903L39.065 49.2048L36 68.7694L32.935 49.2048L32.7604 48.0903L32.0519 48.9682L19.6153 64.3792L26.7432 45.9032L27.1493 44.8507L26.0968 45.2568L7.62083 52.3847L23.0318 39.9481L23.9097 39.2396L22.7952 39.065L3.23056 36L22.7952 32.935L23.9097 32.7604L23.0318 32.0519L7.62083 19.6153L26.0968 26.7432L27.1493 27.1493L26.7432 26.0968L19.6153 7.62083L32.0519 23.0318L32.7604 23.9097L32.935 22.7952L36 3.23056L39.065 22.7952Z" stroke="#F52A3B"/>
</svg>
