<svg width="30" height="30" viewBox="0 0 30 30" fill="none" xmlns="http://www.w3.org/2000/svg">
<path id="Rectangle 12" d="M13.5448 1.33416C13.8721 -0.283782 16.1845 -0.283785 16.5118 1.33415L18.3622 10.4827C18.4829 11.0792 18.9491 11.5454 19.5457 11.6661L28.6942 13.5165C30.3121 13.8438 30.3121 16.1562 28.6942 16.4835L19.5457 18.3339C18.9491 18.4546 18.4829 18.9208 18.3622 19.5173L16.5118 28.6658C16.1845 30.2838 13.8721 30.2838 13.5448 28.6658L11.6944 19.5173C11.5737 18.9208 11.1075 18.4546 10.511 18.3339L1.36248 16.4835C-0.255462 16.1562 -0.255465 13.8438 1.36247 13.5165L10.511 11.6661C11.1075 11.5454 11.5737 11.0792 11.6944 10.4827L13.5448 1.33416Z" fill="#333333"/>
</svg>
