<svg width="74" height="18" viewBox="0 0 74 18" fill="none" xmlns="http://www.w3.org/2000/svg">
<path fill-rule="evenodd" clip-rule="evenodd" d="M56.1377 8.97671C56.1377 13.9255 60.1442 17.9509 65.0676 17.9509C69.9931 17.9509 74 13.9271 74 8.97671C74 4.02629 69.9931 0 65.0668 0C63.6451 0.000953471 62.2293 0.345686 60.975 0.996165C60.4496 1.2696 60.2458 1.91446 60.5208 2.43675C60.7947 2.95883 61.4428 3.16351 61.9696 2.88933C62.9324 2.38897 63.9747 2.13556 65.0676 2.13461C68.8078 2.13461 71.8521 5.20595 71.8521 8.97671C71.8521 12.7475 68.808 15.8163 65.0676 15.8163C61.3273 15.8163 58.2859 12.7475 58.2859 8.97671C58.2859 7.70362 58.6338 6.46347 59.2928 5.38764C59.6012 4.88431 59.4394 4.22758 58.9339 3.92078C58.4254 3.61471 57.7654 3.77415 57.4572 4.27843C56.5937 5.68809 56.1377 7.3127 56.1377 8.97671ZM32.7636 17.1493C32.9731 17.3579 33.2481 17.4619 33.5228 17.4619C33.7976 17.4619 34.072 17.3579 34.2818 17.1493C34.7014 16.7338 34.7014 16.057 34.2831 15.6399L31.0478 12.4225C30.6285 12.0053 29.949 12.0053 29.5297 12.4225C29.11 12.8379 29.11 13.5147 29.5282 13.9313L32.7636 17.1493ZM29.169 0.516602H21.5165C21.0704 0.516602 20.6885 0.785904 20.5261 1.16994C20.4678 1.30194 20.4342 1.44687 20.4342 1.59974V16.3641C20.4342 16.9541 20.9144 17.4317 21.5082 17.4317C22.102 17.4317 22.5822 16.9541 22.5822 16.3641V2.65174H29.169C30.9696 2.65174 32.4352 4.10737 32.4352 5.8982C32.4352 7.68903 30.9696 9.14509 29.169 9.14509H25.4078C24.814 9.14509 24.3337 9.62256 24.3337 10.2126C24.3337 10.8025 24.814 11.28 25.4078 11.28H29.169C32.1538 11.28 34.5833 8.86551 34.5833 5.8982C34.5833 2.9309 32.1538 0.516602 29.169 0.516602ZM47.4069 8.88159H51.7575C52.35 8.88159 52.8316 9.35896 52.8316 9.94916V16.4095C52.8316 16.9991 52.3514 17.4771 51.7574 17.4771C51.1634 17.4771 50.6831 16.9991 50.6831 16.4095V11.0163H47.4069C46.8142 11.0163 46.3327 10.5394 46.3327 9.94916C46.3327 9.35896 46.8142 8.88159 47.4069 8.88159ZM46.4443 17.9999C41.5186 17.9999 37.5123 13.9735 37.5123 9.02297C37.5123 4.07244 41.5185 0.048584 46.4443 0.048584C48.3835 0.048584 50.2288 0.663467 51.781 1.82776C52.2538 2.18256 52.3471 2.85264 51.9912 3.32259C51.634 3.79286 50.9607 3.88736 50.4864 3.5314C49.3098 2.64965 47.9125 2.1833 46.4444 2.1833C42.704 2.1833 39.6599 5.25189 39.6599 9.02297C39.6599 12.7941 42.704 15.8654 46.4444 15.8654C46.9174 15.8654 47.3947 15.8152 47.8602 15.7161C48.4437 15.5877 49.0119 15.9597 49.1357 16.5365C49.2596 17.1131 48.8904 17.6797 48.3091 17.8033C47.6968 17.934 47.0683 17.9999 46.4444 17.9999H46.4443ZM7.64105 16.3632C7.64105 16.9531 8.12175 17.4307 8.71479 17.4307C9.30794 17.4307 9.78896 16.9531 9.78896 16.3632V9.98808C9.78896 9.39873 9.30784 8.92114 8.71479 8.92114C8.12175 8.92114 7.64105 9.39873 7.64105 9.98808V16.3632ZM10.9589 7.2201C10.6512 7.2201 10.3455 7.08884 10.1334 6.83596C9.75335 6.382 9.81603 5.70991 10.2717 5.33244L15.7771 0.779829C16.2326 0.402467 16.9094 0.463489 17.2889 0.917659C17.6689 1.37066 17.6066 2.04297 17.1507 2.4198L11.6457 6.97347C11.4448 7.13895 11.2015 7.2201 10.9589 7.2201ZM5.89601 6.97326C6.09674 7.13874 6.33991 7.21989 6.58233 7.21989C6.89021 7.21989 7.19627 7.08863 7.40884 6.83575C7.78803 6.38179 7.72535 5.70864 7.26983 5.33223L1.76101 0.779622C1.30506 0.40226 0.627263 0.464447 0.248175 0.917452C-0.131019 1.37035 -0.0686554 2.04382 0.387188 2.41959L5.89601 6.97326Z" fill="#F52A3B"/>
</svg>
